Shakira - Waka Waka Esto Es Africa; el video original 


en Espanol, no el Editado de la seleccion Espanola.



File Name: Shakira Esto es Ãfrica.avi


File Size: 83.7 MiB

Duration: 00:03:32.304

Video: MPEG-4 Video NTSC 720x480 
(16/9) 29.97 fps, 3 000 Kbps


Audio: MP3 320 Kbps 2ch 48.0 KHz

Format                           : AVI
Format                           : MPEG-4 Visual
Codec ID                         : DX50
Codec ID/Hint                    : DivX 5
Scan type                        : Progressive
Stream size                      : 75.4 MiB (90%)
Writing library                  : DivX 2816

Audio
Format                         : MPEG Audio
Format version                   : Version 1
Format profile                   : Layer 3
Codec ID                       : 55
Codec ID/Hint                   : MP3
Bit rate mode                    : Constant
Bit rate                         : 320 Kbps
Channel(s)                      : 2 channels
Sampling rate                    : 48.0 KHz
Stream size                      : 8.10 MiB (10%)
Writing library                  : LAME3.96.1


Incluyo otro video modificado por mí, (con dos pistas 

de audio: Español e Inglés) a partir del video original 

en Inglés, el audio parece un poco desincronizado.....no 

hay que olvidar que Shakira canta en Inglés en el 

mencionado video....



Rosqui.......